<svg width="106" height="44" viewBox="0 0 106 44" fill="none" xmlns="http://www.w3.org/2000/svg">
<path d="M12.75 1.25V24H7.26562V1.25H12.75ZM19.5938 1.25V5.48438H0.578125V1.25H19.5938ZM40.7344 12.1719V13.0938C40.7344 14.8333 40.4896 16.3958 40 17.7812C39.5208 19.1562 38.8385 20.3333 37.9531 21.3125C37.0677 22.2812 36.0208 23.026 34.8125 23.5469C33.6042 24.0573 32.2708 24.3125 30.8125 24.3125C29.3438 24.3125 28 24.0573 26.7812 23.5469C25.5729 23.026 24.5208 22.2812 23.625 21.3125C22.7396 20.3333 22.0521 19.1562 21.5625 17.7812C21.0833 16.3958 20.8438 14.8333 20.8438 13.0938V12.1719C20.8438 10.4323 21.0833 8.86979 21.5625 7.48438C22.0521 6.09896 22.7344 4.92188 23.6094 3.95312C24.4948 2.97396 25.5417 2.22917 26.75 1.71875C27.9688 1.19792 29.3125 0.9375 30.7812 0.9375C32.2396 0.9375 33.5729 1.19792 34.7812 1.71875C36 2.22917 37.0521 2.97396 37.9375 3.95312C38.8229 4.92188 39.5104 6.09896 40 7.48438C40.4896 8.86979 40.7344 10.4323 40.7344 12.1719ZM35.1719 13.0938V12.1406C35.1719 11.0156 35.0729 10.026 34.875 9.17188C34.6875 8.30729 34.4062 7.58333 34.0312 7C33.6562 6.41667 33.1927 5.97917 32.6406 5.6875C32.099 5.38542 31.4792 5.23438 30.7812 5.23438C30.0521 5.23438 29.4167 5.38542 28.875 5.6875C28.3333 5.97917 27.8802 6.41667 27.5156 7C27.151 7.58333 26.875 8.30729 26.6875 9.17188C26.5104 10.026 26.4219 11.0156 26.4219 12.1406V13.0938C26.4219 14.2083 26.5104 15.1979 26.6875 16.0625C26.875 16.9167 27.151 17.6406 27.5156 18.2344C27.8906 18.8281 28.349 19.276 28.8906 19.5781C29.4427 19.8802 30.0833 20.0312 30.8125 20.0312C31.5104 20.0312 32.1302 19.8802 32.6719 19.5781C33.2135 19.276 33.6667 18.8281 34.0312 18.2344C34.4062 17.6406 34.6875 16.9167 34.875 16.0625C35.0729 15.1979 35.1719 14.2083 35.1719 13.0938ZM46.2969 1.25H50.7656L55.8438 17.0781L60.9219 1.25H65.3906L57.6562 24H54.0312L46.2969 1.25ZM43.5781 1.25H48.2031L49.0625 18.6875V24H43.5781V1.25ZM63.4844 1.25H68.125V24H62.625V18.6875L63.4844 1.25ZM76.1094 0V2.5625C76.1094 3.26042 75.9688 3.97396 75.6875 4.70312C75.4167 5.43229 75.0625 6.11979 74.625 6.76562C74.1979 7.40104 73.7396 7.9375 73.25 8.375L70.9375 7.125C71.2708 6.53125 71.5729 5.875 71.8438 5.15625C72.125 4.42708 72.2656 3.55729 72.2656 2.54688V0H76.1094ZM91.1406 17.9531C91.1406 17.599 91.0885 17.2812 90.9844 17C90.8802 16.7083 90.6875 16.4375 90.4062 16.1875C90.125 15.9375 89.7188 15.6875 89.1875 15.4375C88.6667 15.1771 87.9792 14.9062 87.125 14.625C86.125 14.2917 85.1615 13.9167 84.2344 13.5C83.3073 13.0729 82.4792 12.5781 81.75 12.0156C81.0208 11.4427 80.4427 10.776 80.0156 10.0156C79.5885 9.24479 79.375 8.34896 79.375 7.32812C79.375 6.34896 79.5938 5.46875 80.0312 4.6875C80.4688 3.89583 81.0781 3.22396 81.8594 2.67188C82.651 2.10938 83.5781 1.68229 84.6406 1.39062C85.7031 1.08854 86.8646 0.9375 88.125 0.9375C89.7917 0.9375 91.2604 1.22917 92.5312 1.8125C93.8125 2.38542 94.8125 3.20312 95.5312 4.26562C96.2604 5.31771 96.625 6.5625 96.625 8H91.1719C91.1719 7.42708 91.0521 6.92188 90.8125 6.48438C90.5833 6.04688 90.2344 5.70312 89.7656 5.45312C89.2969 5.20312 88.7083 5.07812 88 5.07812C87.3125 5.07812 86.7344 5.18229 86.2656 5.39062C85.7969 5.59896 85.4427 5.88021 85.2031 6.23438C84.9635 6.57812 84.8438 6.95833 84.8438 7.375C84.8438 7.71875 84.9375 8.03125 85.125 8.3125C85.3229 8.58333 85.599 8.83854 85.9531 9.07812C86.3177 9.31771 86.7552 9.54688 87.2656 9.76562C87.7865 9.98438 88.3698 10.1979 89.0156 10.4062C90.224 10.7917 91.2969 11.224 92.2344 11.7031C93.1823 12.1719 93.9792 12.7083 94.625 13.3125C95.2812 13.9062 95.776 14.5833 96.1094 15.3438C96.4531 16.1042 96.625 16.9635 96.625 17.9219C96.625 18.9427 96.4271 19.849 96.0312 20.6406C95.6354 21.4323 95.0677 22.1042 94.3281 22.6562C93.5885 23.1979 92.7031 23.6094 91.6719 23.8906C90.6406 24.1719 89.4896 24.3125 88.2188 24.3125C87.0521 24.3125 85.901 24.1667 84.7656 23.875C83.6406 23.5729 82.6198 23.1146 81.7031 22.5C80.7865 21.875 80.0521 21.0781 79.5 20.1094C78.9583 19.1302 78.6875 17.9688 78.6875 16.625H84.1875C84.1875 17.2917 84.276 17.8542 84.4531 18.3125C84.6302 18.7708 84.8906 19.1406 85.2344 19.4219C85.5781 19.6927 86 19.8906 86.5 20.0156C87 20.1302 87.5729 20.1875 88.2188 20.1875C88.9167 20.1875 89.4792 20.0885 89.9062 19.8906C90.3333 19.6823 90.6458 19.4115 90.8438 19.0781C91.0417 18.7344 91.1406 18.3594 91.1406 17.9531ZM5.39062 39.4297V31.625H8.125V39.4297C8.125 40.1901 7.95052 40.849 7.60156 41.4062C7.25781 41.9635 6.78906 42.3958 6.19531 42.7031C5.60677 43.0052 4.94531 43.1562 4.21094 43.1562C3.45052 43.1562 2.77344 43.0286 2.17969 42.7734C1.59115 42.5182 1.1276 42.125 0.789062 41.5938C0.455729 41.0625 0.289062 40.3854 0.289062 39.5625H3.03906C3.03906 39.9479 3.08333 40.25 3.17188 40.4688C3.26042 40.6823 3.39062 40.8333 3.5625 40.9219C3.73958 41.0052 3.95573 41.0469 4.21094 41.0469C4.46094 41.0469 4.67188 40.9844 4.84375 40.8594C5.02083 40.7292 5.15625 40.5443 5.25 40.3047C5.34375 40.0599 5.39062 39.7682 5.39062 39.4297ZM14.5156 34.0156L11.7422 43H8.79688L12.9766 31.625H14.8438L14.5156 34.0156ZM16.8125 43L14.0312 34.0156L13.6719 31.625H15.5625L19.7656 43H16.8125ZM16.7031 38.7578V40.875H10.8672V38.7578H16.7031ZM29.1172 40.8906V43H20.8828V40.8906H29.1172ZM29.0625 33.0312L22.2422 43H20.2578V41.5547L27.1562 31.625H29.0625V33.0312ZM28.1797 31.625V33.7422H20.2188V31.625H28.1797ZM38.8828 40.8906V43H30.6484V40.8906H38.8828ZM38.8281 33.0312L32.0078 43H30.0234V41.5547L36.9219 31.625H38.8281V33.0312ZM37.9453 31.625V33.7422H29.9844V31.625H37.9453ZM49.9766 39.9766C49.9766 39.7995 49.9505 39.6406 49.8984 39.5C49.8464 39.3542 49.75 39.2188 49.6094 39.0938C49.4688 38.9688 49.2656 38.8438 49 38.7188C48.7396 38.5885 48.3958 38.4531 47.9688 38.3125C47.4688 38.1458 46.987 37.9583 46.5234 37.75C46.0599 37.5365 45.6458 37.2891 45.2812 37.0078C44.9167 36.7214 44.6276 36.388 44.4141 36.0078C44.2005 35.6224 44.0938 35.1745 44.0938 34.6641C44.0938 34.1745 44.2031 33.7344 44.4219 33.3438C44.6406 32.9479 44.9453 32.612 45.3359 32.3359C45.7318 32.0547 46.1953 31.8411 46.7266 31.6953C47.2578 31.5443 47.8385 31.4688 48.4688 31.4688C49.3021 31.4688 50.0365 31.6146 50.6719 31.9062C51.3125 32.1927 51.8125 32.6016 52.1719 33.1328C52.5365 33.6589 52.7188 34.2812 52.7188 35H49.9922C49.9922 34.7135 49.9323 34.4609 49.8125 34.2422C49.6979 34.0234 49.5234 33.8516 49.2891 33.7266C49.0547 33.6016 48.7604 33.5391 48.4062 33.5391C48.0625 33.5391 47.7734 33.5911 47.5391 33.6953C47.3047 33.7995 47.1276 33.9401 47.0078 34.1172C46.888 34.2891 46.8281 34.4792 46.8281 34.6875C46.8281 34.8594 46.875 35.0156 46.9688 35.1562C47.0677 35.2917 47.2057 35.4193 47.3828 35.5391C47.5651 35.6589 47.7839 35.7734 48.0391 35.8828C48.2995 35.9922 48.5911 36.099 48.9141 36.2031C49.5182 36.3958 50.0547 36.612 50.5234 36.8516C50.9974 37.0859 51.3958 37.3542 51.7188 37.6562C52.0469 37.9531 52.2943 38.2917 52.4609 38.6719C52.6328 39.0521 52.7188 39.4818 52.7188 39.9609C52.7188 40.4714 52.6198 40.9245 52.4219 41.3203C52.224 41.7161 51.9401 42.0521 51.5703 42.3281C51.2005 42.599 50.7578 42.8047 50.2422 42.9453C49.7266 43.0859 49.151 43.1562 48.5156 43.1562C47.9323 43.1562 47.3568 43.0833 46.7891 42.9375C46.2266 42.7865 45.7161 42.5573 45.2578 42.25C44.7995 41.9375 44.4323 41.5391 44.1562 41.0547C43.8854 40.5651 43.75 39.9844 43.75 39.3125H46.5C46.5 39.6458 46.5443 39.9271 46.6328 40.1562C46.7214 40.3854 46.8516 40.5703 47.0234 40.7109C47.1953 40.8464 47.4062 40.9453 47.6562 41.0078C47.9062 41.0651 48.1927 41.0938 48.5156 41.0938C48.8646 41.0938 49.1458 41.0443 49.3594 40.9453C49.5729 40.8411 49.7292 40.7057 49.8281 40.5391C49.9271 40.3672 49.9766 40.1797 49.9766 39.9766ZM60.6016 39.1484H63.3359C63.2995 39.9401 63.0859 40.638 62.6953 41.2422C62.3047 41.8464 61.763 42.3177 61.0703 42.6562C60.3828 42.9896 59.5703 43.1562 58.6328 43.1562C57.8724 43.1562 57.1927 43.0286 56.5938 42.7734C56 42.5182 55.4948 42.151 55.0781 41.6719C54.6667 41.1927 54.3516 40.612 54.1328 39.9297C53.9193 39.2474 53.8125 38.4792 53.8125 37.625V37.0078C53.8125 36.1536 53.9245 35.3854 54.1484 34.7031C54.3776 34.0156 54.7005 33.4323 55.1172 32.9531C55.5391 32.4688 56.0443 32.099 56.6328 31.8438C57.2214 31.5885 57.875 31.4609 58.5938 31.4609C59.5833 31.4609 60.4193 31.638 61.1016 31.9922C61.7839 32.3464 62.3125 32.8333 62.6875 33.4531C63.0625 34.0677 63.2839 34.7682 63.3516 35.5547H60.6172C60.6068 35.1276 60.5339 34.7708 60.3984 34.4844C60.263 34.1927 60.0495 33.974 59.7578 33.8281C59.4661 33.6823 59.0781 33.6094 58.5938 33.6094C58.2552 33.6094 57.9609 33.6719 57.7109 33.7969C57.4609 33.9219 57.2526 34.1198 57.0859 34.3906C56.9193 34.6615 56.7943 35.013 56.7109 35.4453C56.6328 35.8724 56.5938 36.388 56.5938 36.9922V37.625C56.5938 38.2292 56.6302 38.7448 56.7031 39.1719C56.776 39.599 56.8932 39.9479 57.0547 40.2188C57.2161 40.4896 57.4245 40.6901 57.6797 40.8203C57.9401 40.9453 58.2578 41.0078 58.6328 41.0078C59.0495 41.0078 59.401 40.9427 59.6875 40.8125C59.974 40.6771 60.1953 40.474 60.3516 40.2031C60.5078 39.9271 60.5911 39.5755 60.6016 39.1484ZM72.2969 36.1406V38.25H66.4609V36.1406H72.2969ZM67.375 31.625V43H64.6328V31.625H67.375ZM74.1406 31.625V43H71.4062V31.625H74.1406ZM85.5078 37.0859V37.5469C85.5078 38.4167 85.3854 39.1979 85.1406 39.8906C84.901 40.5781 84.5599 41.1667 84.1172 41.6562C83.6745 42.1406 83.151 42.513 82.5469 42.7734C81.9427 43.0286 81.276 43.1562 80.5469 43.1562C79.8125 43.1562 79.1406 43.0286 78.5312 42.7734C77.9271 42.513 77.401 42.1406 76.9531 41.6562C76.5104 41.1667 76.1667 40.5781 75.9219 39.8906C75.6823 39.1979 75.5625 38.4167 75.5625 37.5469V37.0859C75.5625 36.2161 75.6823 35.4349 75.9219 34.7422C76.1667 34.0495 76.5078 33.4609 76.9453 32.9766C77.388 32.487 77.9115 32.1146 78.5156 31.8594C79.125 31.599 79.7969 31.4688 80.5312 31.4688C81.2604 31.4688 81.9271 31.599 82.5312 31.8594C83.1406 32.1146 83.6667 32.487 84.1094 32.9766C84.5521 33.4609 84.8958 34.0495 85.1406 34.7422C85.3854 35.4349 85.5078 36.2161 85.5078 37.0859ZM82.7266 37.5469V37.0703C82.7266 36.5078 82.6771 36.013 82.5781 35.5859C82.4844 35.1536 82.3438 34.7917 82.1562 34.5C81.9688 34.2083 81.737 33.9896 81.4609 33.8438C81.1901 33.6927 80.8802 33.6172 80.5312 33.6172C80.1667 33.6172 79.849 33.6927 79.5781 33.8438C79.3073 33.9896 79.0807 34.2083 78.8984 34.5C78.7161 34.7917 78.5781 35.1536 78.4844 35.5859C78.3958 36.013 78.3516 36.5078 78.3516 37.0703V37.5469C78.3516 38.1042 78.3958 38.599 78.4844 39.0312C78.5781 39.4583 78.7161 39.8203 78.8984 40.1172C79.0859 40.4141 79.3151 40.638 79.5859 40.7891C79.862 40.9401 80.1823 41.0156 80.5469 41.0156C80.8958 41.0156 81.2057 40.9401 81.4766 40.7891C81.7474 40.638 81.974 40.4141 82.1562 40.1172C82.3438 39.8203 82.4844 39.4583 82.5781 39.0312C82.6771 38.599 82.7266 38.1042 82.7266 37.5469ZM96.5547 37.0859V37.5469C96.5547 38.4167 96.4323 39.1979 96.1875 39.8906C95.9479 40.5781 95.6068 41.1667 95.1641 41.6562C94.7214 42.1406 94.1979 42.513 93.5938 42.7734C92.9896 43.0286 92.3229 43.1562 91.5938 43.1562C90.8594 43.1562 90.1875 43.0286 89.5781 42.7734C88.974 42.513 88.4479 42.1406 88 41.6562C87.5573 41.1667 87.2135 40.5781 86.9688 39.8906C86.7292 39.1979 86.6094 38.4167 86.6094 37.5469V37.0859C86.6094 36.2161 86.7292 35.4349 86.9688 34.7422C87.2135 34.0495 87.5547 33.4609 87.9922 32.9766C88.4349 32.487 88.9583 32.1146 89.5625 31.8594C90.1719 31.599 90.8438 31.4688 91.5781 31.4688C92.3073 31.4688 92.974 31.599 93.5781 31.8594C94.1875 32.1146 94.7135 32.487 95.1562 32.9766C95.599 33.4609 95.9427 34.0495 96.1875 34.7422C96.4323 35.4349 96.5547 36.2161 96.5547 37.0859ZM93.7734 37.5469V37.0703C93.7734 36.5078 93.724 36.013 93.625 35.5859C93.5312 35.1536 93.3906 34.7917 93.2031 34.5C93.0156 34.2083 92.7839 33.9896 92.5078 33.8438C92.237 33.6927 91.9271 33.6172 91.5781 33.6172C91.2135 33.6172 90.8958 33.6927 90.625 33.8438C90.3542 33.9896 90.1276 34.2083 89.9453 34.5C89.763 34.7917 89.625 35.1536 89.5312 35.5859C89.4427 36.013 89.3984 36.5078 89.3984 37.0703V37.5469C89.3984 38.1042 89.4427 38.599 89.5312 39.0312C89.625 39.4583 89.763 39.8203 89.9453 40.1172C90.1328 40.4141 90.362 40.638 90.6328 40.7891C90.9089 40.9401 91.2292 41.0156 91.5938 41.0156C91.9427 41.0156 92.2526 40.9401 92.5234 40.7891C92.7943 40.638 93.0208 40.4141 93.2031 40.1172C93.3906 39.8203 93.5312 39.4583 93.625 39.0312C93.724 38.599 93.7734 38.1042 93.7734 37.5469ZM105.492 40.8906V43H99.7422V40.8906H105.492ZM100.719 31.625V43H97.9766V31.625H100.719Z" fill="black"/>
</svg>
